<svg width="32" height="32" viewBox="0 0 32 32" fill="none" xmlns="http://www.w3.org/2000/svg">
  <path d="M25.7812 3.09375C25.4271 3.09375 25.0729 3.11875 24.7188 3.15C22.2708 3.34583 19.8542 4.25 17.9896 5.8125C16.4688 7.09375 15.5 8.70833 15.1562 10.4896C14.9896 11.375 15.0208 12.2708 15.2188 13.1458C14.5104 13.6771 13.8542 14.2708 13.25 14.9375C12.6771 15.5729 12.3646 16.3438 12.0938 17.125C11.7396 18.2396 11.4688 19.3854 11.0104 20.4792C10.6354 21.375 10.1771 22.2292 9.60417 23.0104C8.94792 23.9167 8.16667 24.6979 7.28125 25.3646C6.39583 26.0312 5.4375 26.6042 4.42708 27.0729C3.91667 27.3021 3.40625 27.5208 2.875 27.7083C2.64583 27.7917 2.42708 27.8854 2.19792 27.9583C2.15625 27.9688 2.125 27.9896 2.08333 28C2.64583 28.1146 3.22917 28.2083 3.80208 28.2708C5.05208 28.4167 6.3125 28.4792 7.57292 28.4375C8.85417 28.3958 10.1042 28.2083 11.3438 27.9375C12.5729 27.6667 13.7917 27.3021 14.9271 26.7396C16.0521 26.1875 17.0833 25.4896 18.0208 24.6771C18.9583 23.8646 19.7917 22.9375 20.5417 21.9271C21.2812 20.9167 21.8958 19.8125 22.4271 18.6771C22.9688 17.5312 23.3958 16.3542 23.7708 15.1458C23.9271 14.6146 24.0521 14.0417 24.1667 13.4583C24.6979 13.2188 25.2396 13.0417 25.8021 12.9479C27.2292 12.7083 28.6562 13.0208 29.9167 13.7604C29.9271 13.7708 29.9375 13.7708 29.9583 13.7813C29.9688 13.25 29.9583 12.7188 29.9271 12.1979C29.8125 10.4271 29.5417 8.66667 28.9896 6.9375C28.7812 6.32292 28.5417 5.71875 28.2396 5.14583C28.0833 4.85417 27.9167 4.57292 27.7292 4.29167C27.625 4.14583 27.5104 4 27.3958 3.85417C27.0104 3.40625 26.4167 3.09375 25.7812 3.09375Z" fill="#C27A2D"/>
</svg>